<svg xmlns="http://www.w3.org/2000/svg" xmlns:xlink="http://www.w3.org/1999/xlink" version="1.1" x="0px" y="0px"
    viewBox="0 0 100 130" enable-background="new 0 0 100 104" xml:space="preserve">
    <path 
        d="M84.832,24.383H68.268v-9.314c0-6.122-4.979-11.103-11.104-11.103h-14.33c-6.122,0-11.103,4.98-11.103,11.103v9.314H15.167  c-2.185,0-3.968,1.749-4.024,3.92L2.896,95.82l-0.011,0.095v0.094c0,2.22,1.806,4.025,4.025,4.025h86.18  c2.219,0,4.025-1.806,4.025-4.025v-0.094l-8.26-67.612C88.8,26.132,87.016,24.383,84.832,24.383z M34.827,15.068  c0-4.415,3.592-8.007,8.007-8.007h14.33c4.415,0,8.007,3.592,8.007,8.007v9.314H34.827V15.068z M93.09,96.938H6.91  c-0.488,0-0.89-0.377-0.927-0.855l8.243-67.485l0.012-0.094v-0.094c0-0.513,0.416-0.929,0.929-0.929h16.564v6.245h3.096V27.48  h30.344v6.244h3.097V27.48h16.564c0.512,0,0.929,0.416,0.929,0.929v0.094l8.255,67.579C93.979,96.561,93.578,96.938,93.09,96.938z" />
    <g>
        <path 
            d="M61.01,51.271c-3.053-2.862-7.066-4.504-11.01-4.504c-3.945,0-7.958,1.642-11.01,4.504   c-3.115,2.92-4.901,6.828-4.901,10.723c0,4.463,2.887,10.238,5.589,14.158c1.348,1.953,6.075,8.326,10.322,8.326   c4.247,0,8.973-6.373,10.322-8.328c2.701-3.918,5.589-9.693,5.589-14.156C65.911,58.1,64.125,54.19,61.01,51.271z M58.35,74.792   c-2.963,4.294-6.396,7.292-8.35,7.292c-1.956,0-5.389-2.998-8.351-7.292c-3.138-4.55-5.167-9.573-5.167-12.798   c0-6.716,6.442-12.832,13.518-12.832c7.072,0,13.516,6.116,13.516,12.832C63.516,65.219,61.487,70.24,58.35,74.792z" />
        <path
            d="M61.268,63.588c-0.603-1.438-2-1.738-3.067-1.738c-0.976,0-2.091,0.253-3.23,0.73c-1.277,0.535-2.378,1.467-3.101,2.624   c-0.607,0.972-0.841,1.983-0.592,2.573c0.315,0.754,1.773,1.533,3.665,1.533c0.903,0,1.812-0.182,2.63-0.525   c1.429-0.6,2.581-1.427,3.247-2.332C61.517,65.506,61.668,64.542,61.268,63.588z" />
        <path
            d="M48.725,67.778c0.514-1.226-0.937-4.042-3.696-5.198c-1.138-0.478-2.255-0.73-3.231-0.73c-1.065,0-2.464,0.301-3.066,1.738   c-0.961,2.289,1.39,4.232,3.695,5.197c0.82,0.344,1.729,0.525,2.631,0.525l0,0C46.951,69.311,48.409,68.531,48.725,67.778z" />
        <path
            d="M52.735,74.776h-5.219c-0.189,0-0.343,0.153-0.343,0.342v1.711c0,0.19,0.154,0.343,0.343,0.343h5.219   c0.187,0,0.341-0.152,0.341-0.343v-1.711C53.076,74.93,52.922,74.776,52.735,74.776z" />
    </g>
</svg>