<svg xmlns="http://www.w3.org/2000/svg" viewBox="0 0 128 160" x="0px" y="0px">
  <g>
    <path fill="#cfff7f" d="M62.924,61.5c-5.179-.1-10.632-.874-15.166-3.486a.276.276,0,0,1-.045.046,34.35,34.35,0,0,0-2.992,3.478,18.289,18.289,0,0,0,2.642,1.435,38.76,38.76,0,0,0,16.229,3.1,33.206,33.206,0,0,1-.365-4.571Z"/>
    <path fill="#cfff7f" d="M16.82,48.781a44.827,44.827,0,0,1,5.855-1.352,41.216,41.216,0,0,1,6.363-.547A19.618,19.618,0,0,1,35.471,35.5c-.16-.061-.342-.129-.524-.213-.38-.145-.889-.3-1.413-.516a35.214,35.214,0,0,0-4.412-1.314,31,31,0,0,0-6.485-.8c-.289.19-.578.379-.858.585q-.981.774-1.983,1.571c-.326.274-.69.517-1,.821s-.622.607-.942.911c-.622.623-1.3,1.207-1.906,1.883a37.5,37.5,0,0,0-6.379,9.432,33.963,33.963,0,0,0-1.921,5.073c.4-.266.828-.547,1.314-.82A36.258,36.258,0,0,1,16.82,48.781Zm2.923-4.428a2.473,2.473,0,0,1,1.185-1.625l.129-.061.068-.037.031-.016h.008l.053-.023.015-.007.2-.053a1.9,1.9,0,0,1,.585-.069,2.051,2.051,0,0,1,1,.266,1.8,1.8,0,0,1,.979,1.413,1.152,1.152,0,0,1-.516,1.032c-.228.122-.372.122-.418.054s-.022-.213.039-.38a.784.784,0,0,0,0-.57,1.067,1.067,0,0,0-.6-.486,1.107,1.107,0,0,0-.471-.076,1.2,1.2,0,0,0-.213.031l-.2.061-.008.015.03-.015h.015c-.022.007.046.03-.053.03l.008-.015-.053.03a1.563,1.563,0,0,0-.729,1.618c.061.189.243.3.387.4.213.068.327.152.327.243s-.114.175-.319.251a1.191,1.191,0,0,1-1.109-.342A1.8,1.8,0,0,1,19.743,44.353ZM12.7,45.6a3.173,3.173,0,0,1,1.5-1.109,2.263,2.263,0,0,1,.562-.1c.106,0,.213.008.311.015a.9.9,0,0,1,.114.023l.046.015.1.023a1.914,1.914,0,0,1,.524.258,1.724,1.724,0,0,1,.379.357,1.811,1.811,0,0,1,.35,1.633,1.128,1.128,0,0,1-.767.813c-.259.053-.4-.008-.418-.084-.061-.175.364-.44.3-.888a1.106,1.106,0,0,0-.349-.692.845.845,0,0,0-.167-.121.244.244,0,0,0-.068-.03c-.016,0,0-.015-.092-.031l-.091-.015h-.114c-.972.129-1.283.653-1.747,1.428-.06.106-.045.182.092.327.189.09.288.189.281.273s-.129.159-.334.22a.926.926,0,0,1-.532-.122.9.9,0,0,1-.41-.7A2.238,2.238,0,0,1,12.7,45.6Z"/>
    <path fill="#cfff7f" d="M34.332,33.319c.524.327.956.592,1.3.858.274.235.486.433.661.615C50.067,24.13,69.439,21.905,85,30.2c.592.319,1.2.653,1.807,1.01a10.307,10.307,0,0,1,1.83-1.762,11.443,11.443,0,0,1,1.1-.737A90.486,90.486,0,0,0,79.3,25.816a101.061,101.061,0,0,0-11.414-1.754c-1.618-.053-3.585-.145-5.97-.274L59.385,23.7c-.835-.045-1.884-.03-3.144-.03-.623.008-1.306,0-2.035.023s-1.5.068-2.34.106a70.576,70.576,0,0,0-12.279,1.656,50.011,50.011,0,0,0-13.715,5.179,23.885,23.885,0,0,1,3.789.789A21.592,21.592,0,0,1,34.332,33.319Zm-.767-3.911a1.629,1.629,0,0,1,1.557-.3c.022.008.129.053.129.053l.045.023.061.031.121.068a1.472,1.472,0,0,1,.327.266,1.5,1.5,0,0,1,.41.721,1.405,1.405,0,0,1-.3,1.253.928.928,0,0,1-.729.319c-.182-.007-.281-.068-.3-.152-.053-.19.243-.41.273-.676.046-.448-.395-.964-.865-.759a.556.556,0,0,0-.228.281.748.748,0,0,0-.031.364c.046.137.084.266.031.335a.338.338,0,0,1-.326.091.926.926,0,0,1-.578-.638A1.282,1.282,0,0,1,33.565,29.408Z"/>
    <path fill="#cfff7f" d="M97.735,46.844C95.882,38.7,87.392,33.205,80,30.418a43.434,43.434,0,0,0-42.284,6.121c-13.131,11.1-5.2,28.539,9.166,33.627,13.047,4.61,28.873,3.744,40.249-4.633C92.662,61.455,99.467,54.469,97.735,46.844ZM87.582,59.306A34.747,34.747,0,0,1,66.9,68.153c-8.164.615-18.15-.342-24.81-5.657-5.476-4.374-8.429-11.065-5.43-17.763a1.15,1.15,0,0,1,1.792-.228c1.375,1.276,4.086,1.853,5.893,2.278a1,1,0,0,1,.813.973,1.138,1.138,0,0,1-.137.7c-2.521,4.769,4.329,8.3,7.883,9.318a34.308,34.308,0,0,0,11.376,1.42c3.759-.2,7.928-.706,11.293-2.559,2-1.1,4.829-2.719,6.242-4.913A1.1,1.1,0,0,1,82,51.234a4.583,4.583,0,0,0,.486-3.3,1.129,1.129,0,0,1,.835-1.094A12.856,12.856,0,0,0,89.655,43.5a1.159,1.159,0,0,1,1.792.228C95.222,49.373,92.283,55.152,87.582,59.306Z"/>
    <path fill="#cfff7f" d="M84.924,48.758a8.521,8.521,0,0,1-2.81,6.447,25.66,25.66,0,0,1,3.417,2.871c3.623-3.288,6.8-7.351,4.64-11.961A15.534,15.534,0,0,1,84.924,48.758Z"/>
    <path fill="#cfff7f" d="M72.242,98.781a91.843,91.843,0,0,0,12.826-1.96,69.7,69.7,0,0,0,16.388-5.847,44.269,44.269,0,0,0,8.658-5.779c-.1-.129-.213-.274-.335-.448-.3-.395-.615-.934-1.055-1.565-.479-.622-1.041-1.367-1.678-2.248-.358-.425-.745-.873-1.155-1.367-.417-.478-.82-1.025-1.344-1.541-.493-.539-1.025-1.109-1.595-1.717-.592-.562-1.169-1.177-1.868-1.761-1.367-1.2-3.045-2.385-4.928-3.729A41.883,41.883,0,0,1,90.2,66.027c-.266.213-.532.433-.8.638a42.223,42.223,0,0,1-19.305,8.08c.4,4.564,1.117,8.407,1.565,11.627a70.207,70.207,0,0,1,.79,8.285c0,1.056.015,1.937-.031,2.681C72.363,97.9,72.3,98.378,72.242,98.781Zm27.2-19.343a3.071,3.071,0,0,1,1.352-1.025,2.077,2.077,0,0,1,1.123-.144c.259.06.365.167.365.25s-.152.152-.349.244a5.908,5.908,0,0,0-.714.447,3.118,3.118,0,0,0-.783.866.813.813,0,0,0-.1.433c0,.1.061.175.213.3l.06.038.023.023a1.68,1.68,0,0,0,.182.076.2.2,0,0,1,.091.023l.145.022a2.353,2.353,0,0,0,.653-.037,2.065,2.065,0,0,0,.979-.434c.4-.334.19-.9.357-.987.069-.045.213.015.388.243a1.221,1.221,0,0,1,0,1.261,2.508,2.508,0,0,1-1.42,1.063,2.873,2.873,0,0,1-1.041.137c-.091-.008-.19-.008-.288-.023a3.063,3.063,0,0,1-.357-.091c-.092-.03-.145-.061-.221-.091l-.03-.008-.083-.045-.016-.008-.06-.046-.137-.1a1.608,1.608,0,0,1-.691-1.215A1.945,1.945,0,0,1,99.444,79.438ZM91.4,71.928a1.023,1.023,0,0,1,.508-.532.957.957,0,0,1,.5-.068c.2.053.311.136.319.227s-.107.175-.282.266a.407.407,0,0,0-.174.365c-.008.3.479,1.192,1.086,1.253a3.191,3.191,0,0,0,.539,0,3.526,3.526,0,0,0,.585-.091,2.268,2.268,0,0,0,.7-.274c.046-.015.069-.045.069-.129a.994.994,0,0,0-.069-.258c-.076-.167-.1-.3-.053-.372s.19-.068.4.015a1.029,1.029,0,0,1,.357.289.853.853,0,0,1,.152.311.823.823,0,0,1-.008.448,1.288,1.288,0,0,1-.486.7,2.87,2.87,0,0,1-.691.395,3.8,3.8,0,0,1-.8.212,2.784,2.784,0,0,1-.98,0,2.443,2.443,0,0,1-.5-.159,2.76,2.76,0,0,1-.433-.3,2.467,2.467,0,0,1-.562-.722A1.934,1.934,0,0,1,91.4,71.928Zm-13.958,21.7a2.261,2.261,0,0,1-.532,1.648,2.142,2.142,0,0,1-.76.585,1.677,1.677,0,0,1-1,.1,1.31,1.31,0,0,1-.8-.569,1.262,1.262,0,0,1-.182-.76,1.359,1.359,0,0,1,.372-.85c.144-.122.258-.175.341-.137.175.069.046.555.19.927.076.2.19.235.3.228a.831.831,0,0,0,.554-.35,1.418,1.418,0,0,0,.335-.805,1.5,1.5,0,0,0-.092-.7c-.113-.327-.577-.388-.6-.562-.016-.084.06-.2.273-.274a1.007,1.007,0,0,1,.979.2A1.861,1.861,0,0,1,77.444,93.624ZM74.55,81.557a1.648,1.648,0,0,0-.9-.41,2.217,2.217,0,0,0-.7.076c-.2.106-.349.137-.417.076s-.038-.205.053-.418a1.593,1.593,0,0,1,.987-.638,2.276,2.276,0,0,1,1.686.372,2.111,2.111,0,0,1,.722.813,1.887,1.887,0,0,1,.189,1.23,1.939,1.939,0,0,1-.2.585,1.606,1.606,0,0,1-.16.288,1.083,1.083,0,0,1-.144.183,2.065,2.065,0,0,1-.273.25l-.251.16a2.343,2.343,0,0,1-.509.174,2,2,0,0,1-1.746-.356,1.112,1.112,0,0,1-.388-1.163c.092-.258.206-.356.289-.341.182.015.175.638.623.759a1.331,1.331,0,0,0,.9-.03,2.22,2.22,0,0,0,.235-.114.315.315,0,0,1,.091-.076c.015-.015.015-.023.03-.03a.582.582,0,0,0,.107-.152s.03-.069.045-.1a.817.817,0,0,0,.084-.251A.971.971,0,0,0,74.55,81.557Z"/>
    <path fill="#cfff7f" d="M100.143,47.422a26.691,26.691,0,0,1,5.763-.061,30.279,30.279,0,0,1,4.876.85,25.7,25.7,0,0,1,6.538,2.574c.373.213.707.426,1.01.631a24.792,24.792,0,0,0-1.405-2.787c-.478-.927-1.1-1.762-1.64-2.62-.63-.8-1.184-1.648-1.868-2.392a39.428,39.428,0,0,0-4.108-4.169,47.928,47.928,0,0,0-4.458-3.4,59.544,59.544,0,0,0-9.1-5c-1.017-.448-2.02-.858-3.015-1.246a15.147,15.147,0,0,0-2.923,1.375c-.578.357-1.071.669-1.482.942C93.961,35.643,99.573,40.716,100.143,47.422Z"/>
    <path fill="#cfff7f" d="M69.576,86.706c-.539-3.152-1.321-6.964-1.747-11.65A44.951,44.951,0,0,1,42.48,70.728a30.12,30.12,0,0,0-5.133,4.412,44.948,44.948,0,0,0-3.866,4.723,87.589,87.589,0,0,0-4.716,7.4c-1.109,1.944-1.883,3.281-2.415,4.109a50.5,50.5,0,0,0,4.732,2.308c.319.144.637.289.964.418l.995.365c.66.242,1.329.485,2,.729.676.212,1.367.417,2.05.622s1.383.418,2.089.577l2.126.524c.721.16,1.443.289,2.172.433,1.443.312,2.931.486,4.42.729a138.557,138.557,0,0,0,18.689.988q2.358-.034,4.686-.2c-.046-.411-.092-.9-.129-1.5-.084-.713-.183-1.571-.3-2.589C70.6,92.751,70.176,90.108,69.576,86.706ZM32.851,90.389a2.03,2.03,0,0,1-1.17,1.3,2.088,2.088,0,0,1-1.1.183,2.416,2.416,0,0,1-1.063-.387,1.791,1.791,0,0,1-.774-1.033,1.96,1.96,0,0,1,.09-1.162,2.239,2.239,0,0,1,1.231-1.208,1.389,1.389,0,0,1,1.2.061c.19.159.235.3.205.372s-.2.084-.4.091a1.345,1.345,0,0,0-.584.281,1.566,1.566,0,0,0-.532.8.586.586,0,0,0,.273.722,1.54,1.54,0,0,0,.547.212.991.991,0,0,0,.486-.038,1.322,1.322,0,0,0,.752-.531c.319-.433.114-.942.281-1.033.068-.046.22.007.387.212A1.3,1.3,0,0,1,32.851,90.389Zm5.278-9a2,2,0,0,1-1.838.395,1.579,1.579,0,0,1-.9-.646,1.657,1.657,0,0,1-.281-.964,1.892,1.892,0,0,1,.631-1.359,1.486,1.486,0,0,1,.911-.358c.19.039.3.1.326.183s-.06.19-.22.3a3.79,3.79,0,0,0-.342.47,1.234,1.234,0,0,0-.121.722.471.471,0,0,0,.365.425,1.21,1.21,0,0,0,1.275-.63c.19-.319-.068-.714.054-.843.053-.068.189-.076.394.038a1.063,1.063,0,0,1,.448.926A1.828,1.828,0,0,1,38.129,81.39Zm27.164,3.82a2.675,2.675,0,0,1-.281-.16.952.952,0,0,1-.19-.136l-.076-.061-.015-.023-.053-.046-.015-.015-.046-.053a2,2,0,0,1-.357-2.02,1.819,1.819,0,0,1,1.155-1.177,1.18,1.18,0,0,1,1.1.236c.136.166.182.288.136.371s-.182.092-.387.061a.957.957,0,0,0-.509.175,1.118,1.118,0,0,0-.364.668.98.98,0,0,0,.174.828h-.03l.015.008.084.068a1.381,1.381,0,0,0,.136.1.171.171,0,0,1,.054.03c.03.015.068.023.1.038a.859.859,0,0,0,.395.046,1.127,1.127,0,0,0,.691-.373c.335-.364.289-.835.471-.888.076-.031.2.046.319.258a1.336,1.336,0,0,1,.008,1.056,1.852,1.852,0,0,1-1.2,1.093,1.945,1.945,0,0,1-1.048.015C65.475,85.278,65.384,85.248,65.293,85.21Zm4.3,9.948a1.651,1.651,0,0,1-1.23,1.109,2.372,2.372,0,0,1-.964.053l-.092-.015-.045-.016h-.038l-.068-.022-.236-.091a1.686,1.686,0,0,1-.463-.258,1.869,1.869,0,0,1,.213-3.182,1.321,1.321,0,0,1,1.085-.038c.168.114.251.228.228.311s-.144.144-.349.167a1.613,1.613,0,0,0-.471.319,1.169,1.169,0,0,0-.288.706.766.766,0,0,0,.341.684,1.258,1.258,0,0,0,1.527-.038.76.76,0,0,0,.129-.524c-.015-.175-.008-.312.061-.365s.2-.015.379.144A1.1,1.1,0,0,1,69.591,95.158Z"/>
    <path fill="#cfff7f" d="M42.518,48.682a18.722,18.722,0,0,1-4.336-1.61c-1.595,5,.85,9.842,4.708,13.108a.481.481,0,0,1,.053-.061c1.033-1.063,1.778-2.377,2.856-3.4C43.255,54.772,41.721,51.674,42.518,48.682Z"/>
    <path fill="#cfff7f" d="M65.589,61.4c-.015,1.519-.326,3.022.433,4.534v.015c0-.023.615-.038.965-.076a32.527,32.527,0,0,0,16.79-6.326,21.026,21.026,0,0,0-3.516-2.832C76.115,59.6,70.115,61.038,65.589,61.4Z"/>
    <path fill="#cfff7f" d="M111.329,87.146a51.353,51.353,0,0,1-13.267,7.875,79.9,79.9,0,0,1-15.226,4.511,91.767,91.767,0,0,1-16.222,1.717,147.7,147.7,0,0,1-16.251-.676A78.015,78.015,0,0,1,34.8,97.444,49.616,49.616,0,0,1,10.167,80.456c-.2-.281-.387-.57-.584-.851a31.811,31.811,0,0,0,5.862,8.771,40.773,40.773,0,0,0,8.536,6.8,49.74,49.74,0,0,0,4.48,2.43c1.5.707,3,1.329,4.443,1.967a88.29,88.29,0,0,0,16.259,4.716c.486.092.964.175,1.443.258.729.092,1.489.183,2.3.282a101.266,101.266,0,0,0,10.624.728A78.072,78.072,0,0,0,72.7,105c2.18-.372,3.987-.676,5.445-.851q.387-.033.752-.068a71.1,71.1,0,0,0,16.912-5.187c.782-.387,1.572-.782,2.369-1.177a24.093,24.093,0,0,0,2.4-1.268c.782-.478,1.572-.957,2.377-1.45.4-.244.813-.486,1.208-.737.387-.273.782-.531,1.162-.828a44.967,44.967,0,0,0,8.589-8.5c.235-.3.463-.6.691-.911A34.333,34.333,0,0,1,111.329,87.146Z"/>
    <path fill="#cfff7f" d="M120.768,60.977a25.022,25.022,0,0,0-1.283-6.493c-.122-.357-.243-.706-.372-1.056-.183-.1-.38-.2-.6-.319-.539-.243-1.147-.569-1.922-.881a33.539,33.539,0,0,0-6.287-1.966,32.34,32.34,0,0,0-4.587-.669,25.871,25.871,0,0,0-5.544.122l-.023-.137c-.357,5.984-3.858,10.981-8.217,14.953A44.4,44.4,0,0,0,97.462,69a54.707,54.707,0,0,1,5.027,3.972c.722.653,1.344,1.351,1.944,1.974.547.653,1.071,1.268,1.557,1.838.5.562.9,1.162,1.291,1.693s.752,1.033,1.071,1.511c.592.988,1.078,1.823,1.465,2.529a18.156,18.156,0,0,1,.752,1.815q.069.183.114.342a32.6,32.6,0,0,0,3.379-3.516,27.846,27.846,0,0,0,3.965-6.356c.227-.577.5-1.116.691-1.7s.395-1.147.577-1.732c.167-.592.334-1.177.509-1.762.136-.584.265-1.169.4-1.746A27.018,27.018,0,0,0,120.768,60.977Zm-19.661,6.516c-.258.167-.433.144-.471.076-.091-.175.3-.509.091-1.132-.364-1.215-1.762-2.058-2.521-.638a1.255,1.255,0,0,0-.19.949c.053.236.266.365.441.486.227.092.349.183.349.274s-.144.159-.387.22a1.286,1.286,0,0,1-1.193-.539,2,2,0,0,1-.091-1.9c.433-1,1.982-2.171,3.061-1.351a2.516,2.516,0,0,1,.835.744,2.738,2.738,0,0,1,.592,1.67A1.321,1.321,0,0,1,101.107,67.493Zm4.382-13.9a2.092,2.092,0,0,1-1.352-.714,1.377,1.377,0,0,1-.395-1.314.717.717,0,0,1,.8-.516c.607.212-.061.577.235.881a1.483,1.483,0,0,0,1.762.1c-.03-.121-.2-.539-.144-.653.038-.083.144-.121.327-.106a.889.889,0,0,1,.69.562,1.053,1.053,0,0,1-.03.775,1.5,1.5,0,0,1-.478.577,1.884,1.884,0,0,1-.661.334A2.137,2.137,0,0,1,105.489,53.588Zm5.338,22.22a1.765,1.765,0,0,1-.926.547,2.828,2.828,0,0,1-.775.068c-.919-.045-1.389-.41-1.336-.562.152-.508,1.754-.1,2.02-.653.387-.8-.912-1.154-1.443-1.207a2.075,2.075,0,0,0-1.04.121.965.965,0,0,0-.41.471c-.046.236-.114.365-.206.38s-.182-.107-.288-.319a1.259,1.259,0,0,1,.326-1.223,2.366,2.366,0,0,1,1.641-.607,3.171,3.171,0,0,1,2,.592,1.721,1.721,0,0,1,.653.972A1.559,1.559,0,0,1,110.827,75.808Zm4.61-20.823a1.918,1.918,0,0,1-.873.5,2.077,2.077,0,0,1-1.079,0A2.474,2.474,0,0,1,112,54.279a1.916,1.916,0,0,1-.243-.858,1.3,1.3,0,0,1,.282-.851,1.112,1.112,0,0,1,1.063-.357c.2.069.311.145.319.228.053.182-.585.334-.638.646a.649.649,0,0,0,.03.227,1.32,1.32,0,0,0,.2.357,1.609,1.609,0,0,0,.813.577A.927.927,0,0,0,115,53.58a.766.766,0,0,0-.2-.493c-.115-.122-.19-.244-.167-.327s.152-.137.387-.122a1.129,1.129,0,0,1,.858.707A1.571,1.571,0,0,1,115.437,54.985Z"/>
    <path fill="#cfff7f" d="M12.331,79.484c.183.25.357.508.547.759l.615.7c.411.471.821.949,1.238,1.42.851.934,1.831,1.8,2.749,2.711a45.951,45.951,0,0,0,8.1,5.87,35.711,35.711,0,0,1,1.762-4.427,55.807,55.807,0,0,1,4.419-7.86,42.479,42.479,0,0,1,3.949-5.042,31.7,31.7,0,0,1,4.587-4.147c-7.374-4.7-11.809-12.553-11.49-20.3a43.214,43.214,0,0,0-5.786.471,49.488,49.488,0,0,0-5.62,1.169,47.011,47.011,0,0,0-7.685,2.734c-.942.41-1.694.828-2.347,1.147-.076.038-.137.076-.205.114a31,31,0,0,0-.744,5.1A28.687,28.687,0,0,0,8.724,73.211c.236.547.471,1.094.714,1.64q.444.775.889,1.572A26.024,26.024,0,0,0,12.331,79.484Zm17.27-5.84a1.1,1.1,0,0,1,.979-.205c.19.083.258.182.258.266s-.121.159-.281.227a1.328,1.328,0,0,0-.334.365,1.256,1.256,0,0,0-.129.668.7.7,0,0,0,1.382.145.546.546,0,0,0,.031-.426.438.438,0,0,1-.038-.342c.045-.076.167-.1.387-.022a1,1,0,0,1,.524.9,1.652,1.652,0,0,1-.737,1.306,1.824,1.824,0,0,1-.866.334,1.677,1.677,0,0,1-.539-.03,3.164,3.164,0,0,1-.311-.1l-.152-.083a1.758,1.758,0,0,1-.858-1.717A1.8,1.8,0,0,1,29.6,73.644Zm-5.931,12.1a1,1,0,0,0,1.222-.107c.251-.212.16-.645.312-.736.068-.046.2-.015.349.144a1.035,1.035,0,0,1,.167.965,1.63,1.63,0,0,1-1.04,1.017,1.819,1.819,0,0,1-.866.107,1.708,1.708,0,0,1-.494-.129l-.2-.092-.213-.136A1.787,1.787,0,0,1,22.2,85.1a1.648,1.648,0,0,1,.8-1.215,1.255,1.255,0,0,1,.942-.122c.167.084.25.175.25.266s-.1.167-.273.235a1.56,1.56,0,0,0-.372.342A.858.858,0,0,0,23.67,85.749ZM20.26,51.818a1.089,1.089,0,0,1,1.025-.433c.2.069.3.145.311.236s-.091.175-.281.266a.68.68,0,0,0-.273.395,1.024,1.024,0,0,0,.152.668,1,1,0,0,0,.66.493.925.925,0,0,0,.251.016c.03,0,.122-.023.2-.031a1.849,1.849,0,0,0,.432-.2,1.3,1.3,0,0,0,.509-.577c.167-.365-.129-.775,0-.9.054-.068.19-.068.4.046a1.158,1.158,0,0,1,.5.934,1.885,1.885,0,0,1-.676,1.42,2.332,2.332,0,0,1-.79.471,2.025,2.025,0,0,1-.531.106,1.641,1.641,0,0,1-.509-.015,2.028,2.028,0,0,1-1.519-1.269A1.694,1.694,0,0,1,20.26,51.818Zm-10.2,5.506a1.85,1.85,0,0,1-.19-2.05,1.954,1.954,0,0,1,1.261-.973,1.271,1.271,0,0,1,1.055.19c.175.152.205.281.167.357s-.182.084-.364.1a1.484,1.484,0,0,0-.555.2,1.318,1.318,0,0,0-.5.63.749.749,0,0,0,.137.752l.121.152c.031.038.046.038.069.068a.645.645,0,0,0,.159.115.83.83,0,0,0,.38.113,1.206,1.206,0,0,0,.767-.242c.44-.3.615-.715.8-.692.144,0,.364.555-.137,1.314a1.923,1.923,0,0,1-1.367.8,1.766,1.766,0,0,1-1.01-.167,1.732,1.732,0,0,1-.463-.3c-.076-.069-.159-.152-.213-.213Z"/>
  </g>
  <text x="0" y="143" fill="#cfff7f" font-size="5px" font-weight="bold" font-family="'Helvetica Neue', Helvetica, Arial-Unicode, Arial, Sans-serif"></text>
  <text x="0" y="148" fill="#cfff7f" font-size="5px" font-weight="bold" font-family="'Helvetica Neue', Helvetica, Arial-Unicode, Arial, Sans-serif"></text>
</svg>
